<svg xmlns="http://www.w3.org/2000/svg" width="640" height="440" viewBox="0 0 640 440" font-family="Helvetica,Arial,sans-serif">
<rect width="640" height="440" fill="white"/>
<rect x="70" y="40" width="550" height="340" fill="none" stroke="black" stroke-width="1"/>
<line x1="70.00" y1="40" x2="70.00" y2="380" stroke="#dddddd" stroke-width="1"/>
<line x1="70.00" y1="380" x2="70.00" y2="385" stroke="black" stroke-width="1"/>
<text x="70.00" y="400" text-anchor="middle" font-size="12">1980</text>
<line x1="161.67" y1="40" x2="161.67" y2="380" stroke="#dddddd" stroke-width="1"/>
<line x1="161.67" y1="380" x2="161.67" y2="385" stroke="black" stroke-width="1"/>
<text x="161.67" y="400" text-anchor="middle" font-size="12">1990</text>
<line x1="253.33" y1="40" x2="253.33" y2="380" stroke="#dddddd" stroke-width="1"/>
<line x1="253.33" y1="380" x2="253.33" y2="385" stroke="black" stroke-width="1"/>
<text x="253.33" y="400" text-anchor="middle" font-size="12">2000</text>
<line x1="345.00" y1="40" x2="345.00" y2="380" stroke="#dddddd" stroke-width="1"/>
<line x1="345.00" y1="380" x2="345.00" y2="385" stroke="black" stroke-width="1"/>
<text x="345.00" y="400" text-anchor="middle" font-size="12">2010</text>
<line x1="436.67" y1="40" x2="436.67" y2="380" stroke="#dddddd" stroke-width="1"/>
<line x1="436.67" y1="380" x2="436.67" y2="385" stroke="black" stroke-width="1"/>
<text x="436.67" y="400" text-anchor="middle" font-size="12">2020</text>
<line x1="528.33" y1="40" x2="528.33" y2="380" stroke="#dddddd" stroke-width="1"/>
<line x1="528.33" y1="380" x2="528.33" y2="385" stroke="black" stroke-width="1"/>
<text x="528.33" y="400" text-anchor="middle" font-size="12">2030</text>
<line x1="620.00" y1="40" x2="620.00" y2="380" stroke="#dddddd" stroke-width="1"/>
<line x1="620.00" y1="380" x2="620.00" y2="385" stroke="black" stroke-width="1"/>
<text x="620.00" y="400" text-anchor="middle" font-size="12">2040</text>
<line x1="70" y1="380.00" x2="620" y2="380.00" stroke="#dddddd" stroke-width="1"/>
<line x1="65" y1="380.00" x2="70" y2="380.00" stroke="black" stroke-width="1"/>
<text x="61" y="380.00" text-anchor="end" dominant-baseline="middle" font-size="12">-4</text>
<line x1="70" y1="323.33" x2="620" y2="323.33" stroke="#dddddd" stroke-width="1"/>
<line x1="65" y1="323.33" x2="70" y2="323.33" stroke="black" stroke-width="1"/>
<text x="61" y="323.33" text-anchor="end" dominant-baseline="middle" font-size="12">-2</text>
<line x1="70" y1="266.67" x2="620" y2="266.67" stroke="#dddddd" stroke-width="1"/>
<line x1="65" y1="266.67" x2="70" y2="266.67" stroke="black" stroke-width="1"/>
<text x="61" y="266.67" text-anchor="end" dominant-baseline="middle" font-size="12">0</text>
<line x1="70" y1="210.00" x2="620" y2="210.00" stroke="#dddddd" stroke-width="1"/>
<line x1="65" y1="210.00" x2="70" y2="210.00" stroke="black" stroke-width="1"/>
<text x="61" y="210.00" text-anchor="end" dominant-baseline="middle" font-size="12">2</text>
<line x1="70" y1="153.33" x2="620" y2="153.33" stroke="#dddddd" stroke-width="1"/>
<line x1="65" y1="153.33" x2="70" y2="153.33" stroke="black" stroke-width="1"/>
<text x="61" y="153.33" text-anchor="end" dominant-baseline="middle" font-size="12">4</text>
<line x1="70" y1="96.67" x2="620" y2="96.67" stroke="#dddddd" stroke-width="1"/>
<line x1="65" y1="96.67" x2="70" y2="96.67" stroke="black" stroke-width="1"/>
<text x="61" y="96.67" text-anchor="end" dominant-baseline="middle" font-size="12">6</text>
<line x1="70" y1="40.00" x2="620" y2="40.00" stroke="#dddddd" stroke-width="1"/>
<line x1="65" y1="40.00" x2="70" y2="40.00" stroke="black" stroke-width="1"/>
<text x="61" y="40.00" text-anchor="end" dominant-baseline="middle" font-size="12">8</text>
<text x="345" y="426" text-anchor="middle" font-size="13">year</text>
<text x="18" y="210.0" text-anchor="middle" font-size="13" transform="rotate(-90 18 210.0)">ngdp_rpch</text>
<circle cx="70.00" cy="273.95" r="3" fill="#1f4e79" fill-opacity="0.75"/>
<circle cx="79.17" cy="194.79" r="3" fill="#1f4e79" fill-opacity="0.75"/>
<circle cx="88.33" cy="317.75" r="3" fill="#1f4e79" fill-opacity="0.75"/>
<circle cx="97.50" cy="136.79" r="3" fill="#1f4e79" fill-opacity="0.75"/>
<circle cx="106.67" cy="61.65" r="3" fill="#1f4e79" fill-opacity="0.75"/>
<circle cx="115.83" cy="148.54" r="3" fill="#1f4e79" fill-opacity="0.75"/>
<circle cx="125.00" cy="168.55" r="3" fill="#1f4e79" fill-opacity="0.75"/>
<circle cx="134.17" cy="168.78" r="3" fill="#1f4e79" fill-opacity="0.75"/>
<circle cx="143.33" cy="148.32" r="3" fill="#1f4e79" fill-opacity="0.75"/>
<circle cx="152.50" cy="162.63" r="3" fill="#1f4e79" fill-opacity="0.75"/>
<circle cx="161.67" cy="213.23" r="3" fill="#1f4e79" fill-opacity="0.75"/>
<circle cx="170.83" cy="269.75" r="3" fill="#1f4e79" fill-opacity="0.75"/>
<circle cx="180.00" cy="166.88" r="3" fill="#1f4e79" fill-opacity="0.75"/>
<circle cx="189.17" cy="188.69" r="3" fill="#1f4e79" fill-opacity="0.75"/>
<circle cx="198.33" cy="152.51" r="3" fill="#1f4e79" fill-opacity="0.75"/>
<circle cx="207.50" cy="190.59" r="3" fill="#1f4e79" fill-opacity="0.75"/>
<circle cx="216.67" cy="159.77" r="3" fill="#1f4e79" fill-opacity="0.75"/>
<circle cx="225.83" cy="140.67" r="3" fill="#1f4e79" fill-opacity="0.75"/>
<circle cx="235.00" cy="139.65" r="3" fill="#1f4e79" fill-opacity="0.75"/>
<circle cx="244.17" cy="131.01" r="3" fill="#1f4e79" fill-opacity="0.75"/>
<circle cx="253.33" cy="151.12" r="3" fill="#1f4e79" fill-opacity="0.75"/>
<circle cx="262.50" cy="239.58" r="3" fill="#1f4e79" fill-opacity="0.75"/>
<circle cx="271.67" cy="218.50" r="3" fill="#1f4e79" fill-opacity="0.75"/>
<circle cx="280.83" cy="187.45" r="3" fill="#1f4e79" fill-opacity="0.75"/>
<circle cx="290.00" cy="157.64" r="3" fill="#1f4e79" fill-opacity="0.75"/>
<circle cx="299.17" cy="167.98" r="3" fill="#1f4e79" fill-opacity="0.75"/>
<circle cx="308.33" cy="187.76" r="3" fill="#1f4e79" fill-opacity="0.75"/>
<circle cx="317.50" cy="209.89" r="3" fill="#1f4e79" fill-opacity="0.75"/>
<circle cx="326.67" cy="263.44" r="3" fill="#1f4e79" fill-opacity="0.75"/>
<circle cx="335.83" cy="339.65" r="3" fill="#1f4e79" fill-opacity="0.75"/>
<circle cx="345.00" cy="190.31" r="3" fill="#1f4e79" fill-opacity="0.75"/>
<circle cx="354.17" cy="222.35" r="3" fill="#1f4e79" fill-opacity="0.75"/>
<circle cx="363.33" cy="201.81" r="3" fill="#1f4e79" fill-opacity="0.75"/>
<circle cx="372.50" cy="206.66" r="3" fill="#1f4e79" fill-opacity="0.75"/>
<circle cx="381.67" cy="195.15" r="3" fill="#1f4e79" fill-opacity="0.75"/>
<circle cx="390.83" cy="183.20" r="3" fill="#1f4e79" fill-opacity="0.75"/>
<circle cx="400.00" cy="215.10" r="3" fill="#1f4e79" fill-opacity="0.75"/>
<circle cx="409.17" cy="197.02" r="3" fill="#1f4e79" fill-opacity="0.75"/>
<circle cx="418.33" cy="182.60" r="3" fill="#1f4e79" fill-opacity="0.75"/>
<circle cx="427.50" cy="193.45" r="3" fill="#1f4e79" fill-opacity="0.75"/>
<circle cx="436.67" cy="325.63" r="3" fill="#1f4e79" fill-opacity="0.75"/>
<circle cx="445.83" cy="92.36" r="3" fill="#1f4e79" fill-opacity="0.75"/>
<circle cx="455.00" cy="195.15" r="3" fill="#1f4e79" fill-opacity="0.75"/>
<circle cx="464.17" cy="183.51" r="3" fill="#1f4e79" fill-opacity="0.75"/>
<circle cx="473.33" cy="187.53" r="3" fill="#1f4e79" fill-opacity="0.75"/>
<circle cx="482.50" cy="206.68" r="3" fill="#1f4e79" fill-opacity="0.75"/>
<circle cx="491.67" cy="200.82" r="3" fill="#1f4e79" fill-opacity="0.75"/>
<circle cx="500.83" cy="207.17" r="3" fill="#1f4e79" fill-opacity="0.75"/>
<circle cx="510.00" cy="207.17" r="3" fill="#1f4e79" fill-opacity="0.75"/>
<circle cx="519.17" cy="213.37" r="3" fill="#1f4e79" fill-opacity="0.75"/>
<circle cx="528.33" cy="217.00" r="3" fill="#1f4e79" fill-opacity="0.75"/>
<circle cx="537.50" cy="216.94" r="3" fill="#1f4e79" fill-opacity="0.75"/>
</svg>
